# xmcd
#
# Track frame offsets:
#	150
#	12185
#	25465
#	37317
#	52335
#	66507
#	84527
#	95885
#	112905
#	129635
#	142890
#	162305
#	176540
#	193112
#	205680
#	220022
#	239085
#	251707
#
# Disc length: 3544 seconds
#
# Revision: 1
# Processed by: cddbd v1.5.1PL2 Copyright (c) Steve Scherf et al.
# Submitted via: audiograbber 1.82.00
#
DISCID=140dd612
DTITLE=Various Artist - Legends Alive
DYEAR=1991
DGENRE=Country
TTITLE0=Hamilton County Bluegrass band - Gotta Travel On
TTITLE1=John Grenell and Jodi Vaughn - Have You Ever Been Lonely
TTITLE2=Suzanne Prentice - Misty Blue
TTITLE3=Gray Bartlett - Tahitian Skies
TTITLE4=Jodi Vaughn - Harper Valley PTA
TTITLE5=Gray Bartlett - Homecoming Anthem
TTITLE6=John Grenell - A Rolling Stone
TTITLE7=Suzanne Prentice - What A Wonderful World
TTITLE8=Jodie Vaughn - The Midnight Special
TTITLE9=Hamilton County Bluegrass Band - Reunion
TTITLE10=Suzanne Prentice - The Wind Beneath My Wings
TTITLE11=John Grenell - Mandrake - Aristocrat
TTITLE12=Gray Bartlett - Always On My Mind
TTITLE13=Suzanne Prentice - Tennessee Waltz
TTITLE14=Gray Bartlett - Yakety Axe
TTITLE15=John Grenell - She Knows Her Daddy Sings
TTITLE16=Hamilton County Blue Grass Band - Heading Out
TTITLE17=John Grenell - Rockin' Over River
EXTD=
EXTT0=
EXTT1=
EXTT2=
EXTT3=
EXTT4=
EXTT5=
EXTT6=
EXTT7=
EXTT8=
EXTT9=
EXTT10=
EXTT11=
EXTT12=
EXTT13=
EXTT14=
EXTT15=
EXTT16=
EXTT17=
PLAYORDER=
